<?xml version="1.0" standalone="no"?>
<!DOCTYPE svg PUBLIC "-//W3C//DTD SVG 20010904//EN"
 "http://www.w3.org/TR/2001/REC-SVG-20010904/DTD/svg10.dtd">
<svg version="1.0" xmlns="http://www.w3.org/2000/svg"
 width="1280.000000pt" height="1280.000000pt" viewBox="0 0 1280.000000 1280.000000"
 preserveAspectRatio="xMidYMid meet">
<metadata>
Created by potrace 1.15, written by Peter Selinger 2001-2017
</metadata>
<g transform="translate(0.000000,1280.000000) scale(0.100000,-0.100000)"
fill="#000000" stroke="none">
<path d="M6110 12794 c-169 -11 -349 -27 -456 -40 -1606 -193 -3104 -1019
-4166 -2294 -218 -261 -454 -598 -628 -895 -107 -183 -302 -579 -386 -780 -36
-88 -103 -272 -149 -410 -168 -506 -254 -924 -307 -1490 -19 -208 -16 -805 5
-1025 83 -846 298 -1587 676 -2325 399 -780 951 -1470 1626 -2035 959 -802
2120 -1309 3329 -1454 279 -34 410 -41 756 -40 380 0 548 12 880 59 1785 258
3409 1293 4437 2830 524 785 875 1694 1008 2615 47 332 59 500 59 880 1 348
-6 476 -40 760 -218 1814 -1253 3492 -2802 4545 -497 338 -1010 591 -1577 780
-479 160 -919 252 -1425 300 -154 15 -713 28 -840 19z m455 -5840 c162 -38
303 -148 368 -285 46 -99 58 -154 58 -269 0 -115 -12 -170 -58 -269 -88 -187
-293 -304 -533 -304 -173 0 -327 59 -434 167 -108 109 -158 236 -158 406 0
169 50 298 157 405 146 146 374 203 600 149z"/>
</g>
</svg>
